{
  "accessors": [
    {
      "bufferView": 2,
      "componentType": 5126,
      "count": 12543,
      "max": [
        1.5145173072814941,
        1.1964787244796753,
        1.0736002922058105
      ],
      "min": [
        -1.714531421661377,
        -0.5967046618461609,
        -0.5843722820281982
      ],
      "type": "VEC3"
    },
    {
      "bufferView": 2,
      "byteOffset": 150516,
      "componentType": 5126,
      "count": 12543,
      "max": [
        1.0,
        1.0,
        1.0
      ],
      "min": [
        -1.0,
        -1.0,
        -1.0
      ],
      "type": "VEC3"
    },
    {
      "bufferView": 1,
      "componentType": 5126,
      "count": 12543,
      "max": [
        0.9868345856666565,
        0.9930406808853149
      ],
      "min": [
        0.00030807743314653635,
        0.00030803680419921875
      ],
      "type": "VEC2"
    },
    {
      "bufferView": 0,
      "componentType": 5125,
      "count": 70512,
      "type": "SCALAR"
    },
    {
      "bufferView": 2,
      "byteOffset": 301032,
      "componentType": 5126,
      "count": 13890,
      "max": [
        1.5185025930404663,
        1.2004780769348145,
        1.077502965927124
      ],
      "min": [
        -1.7185224294662476,
        -0.6006675362586975,
        -0.5871785283088684
      ],
      "type": "VEC3"
    },
    {
      "bufferView": 2,
      "byteOffset": 467712,
      "componentType": 5126,
      "count": 13890,
      "max": [
        1.0,
        1.0,
        1.0
      ],
      "min": [
        -1.0,
        -1.0,
        -1.0
      ],
      "type": "VEC3"
    },
    {
      "bufferView": 1,
      "byteOffset": 100344,
      "componentType": 5126,
      "count": 13890,
      "max": [
        0.9868345856666565,
        0.9930406808853149
      ],
      "min": [
        0.00030807743314653635,
        0.00030803680419921875
      ],
      "type": "VEC2"
    },
    {
      "bufferView": 0,
      "byteOffset": 282048,
      "componentType": 5125,
      "count": 77904,
      "type": "SCALAR"
    }
  ],
  "asset": {
    "extras": {
      "author": "kuayarts (https://sketchfab.com/kuayarts)",
      "license": "CC-BY-4.0 (http://creativecommons.org/licenses/by/4.0/)",
      "source": "https://sketchfab.com/3d-models/pokemon-swablu-cloud-14cbf9c2a41644b99335a21e1a1f88ed",
      "title": "Pokemon Swablu - Cloud"
    },
    "generator": "Sketchfab-13.66.0",
    "version": "2.0"
  },
  "bufferViews": [
    {
      "buffer": 0,
      "byteLength": 593664,
      "name": "floatBufferViews",
      "target": 34963
    },
    {
      "buffer": 0,
      "byteLength": 211464,
      "byteOffset": 593664,
      "byteStride": 8,
      "name": "floatBufferViews",
      "target": 34962
    },
    {
      "buffer": 0,
      "byteLength": 634392,
      "byteOffset": 805128,
      "byteStride": 12,
      "name": "floatBufferViews",
      "target": 34962
    }
  ],
  "buffers": [
    {
      "byteLength": 1439520,
      "uri": "scene.bin"
    }
  ],
  "extensionsUsed": [
    "KHR_materials_unlit"
  ],
  "images": [
    {
      "uri": "textures/Body_baseColor.png"
    }
  ],
  "materials": [
    {
      "doubleSided": true,
      "extensions": {
        "KHR_materials_unlit": {}
      },
      "name": "Body",
      "pbrMetallicRoughness": {
        "baseColorTexture": {
          "index": 0
        },
        "metallicFactor": 0.0
      }
    },
    {
      "extensions": {
        "KHR_materials_unlit": {}
      },
      "name": "Outlines",
      "pbrMetallicRoughness": {
        "baseColorFactor": [
          0.0,
          0.0,
          0.0,
          1.0
        ],
        "metallicFactor": 0.0
      }
    }
  ],
  "meshes": [
    {
      "name": "Wablu_Body_0",
      "primitives": [
        {
          "attributes": {
            "NORMAL": 1,
            "POSITION": 0,
            "TEXCOORD_0": 2
          },
          "indices": 3,
          "material": 0,
          "mode": 4
        }
      ]
    },
    {
      "name": "Outlines_Outlines_0",
      "primitives": [
        {
          "attributes": {
            "NORMAL": 5,
            "POSITION": 4,
            "TEXCOORD_0": 6
          },
          "indices": 7,
          "material": 1,
          "mode": 4
        }
      ]
    }
  ],
  "nodes": [
    {
      "children": [
        1
      ],
      "matrix": [
        3.1581859588623047,
        0.0,
        0.0,
        0.0,
        0.0,
        7.012581535153616e-16,
        -3.1581859588623047,
        0.0,
        0.0,
        3.1581859588623047,
        7.012581535153616e-16,
        0.0,
        0.0,
        0.0,
        0.0,
        1.0
      ],
      "name": "Sketchfab_model"
    },
    {
      "children": [
        2
      ],
      "matrix": [
        0.009999999776482582,
        0.0,
        0.0,
        0.0,
        0.0,
        0.0,
        0.009999999776482582,
        0.0,
        0.0,
        -0.009999999776482582,
        0.0,
        0.0,
        0.0,
        0.0,
        0.0,
        1.0
      ],
      "name": "3d5d4ead771e43bca919344a006d099f.fbx"
    },
    {
      "children": [
        3,
        5
      ],
      "name": "RootNode"
    },
    {
      "children": [
        4
      ],
      "matrix": [
        18.412400492671267,
        1.8366769814197834,
        -7.061339639051667,
        0.0,
        -7.086722821268329,
        -0.0591678062519196,
        -18.4939767223926,
        0.0,
        -1.7361573275594868,
        19.71990199918936,
        0.6021897064598662,
        0.0,
        -0.334380567073822,
        21.804882049560547,
        -0.27563539147377014,
        1.0
      ],
      "name": "Wablu"
    },
    {
      "mesh": 0,
      "name": "Wablu_Body_0"
    },
    {
      "children": [
        6
      ],
      "matrix": [
        18.41240053372419,
        1.8366765698705627,
        -7.0613396390516705,
        0.0,
        -7.0867228225908345,
        -0.05916764785132136,
        -18.493976722392603,
        0.0,
        -1.7361588931877332,
        19.719924827444505,
        0.6021904023848023,
        0.0,
        -0.334380567073822,
        21.804882049560547,
        -0.27563539147377014,
        1.0
      ],
      "name": "Outlines"
    },
    {
      "mesh": 1,
      "name": "Outlines_Outlines_0"
    }
  ],
  "samplers": [
    {
      "magFilter": 9729,
      "minFilter": 9987,
      "wrapS": 10497,
      "wrapT": 10497
    }
  ],
  "scene": 0,
  "scenes": [
    {
      "name": "Sketchfab_Scene",
      "nodes": [
        0
      ]
    }
  ],
  "textures": [
    {
      "sampler": 0,
      "source": 0
    }
  ]
}
